<?xml version="1.0" encoding="utf-8"?>
<!-- Generator: Adobe Illustrator 22.0.1, SVG Export Plug-In . SVG Version: 6.00 Build 0)  -->
<svg version="1.1" id="Layer_1" xmlns="http://www.w3.org/2000/svg" xmlns:xlink="http://www.w3.org/1999/xlink" x="0px" y="0px"
	 viewBox="0 0 559.2 169" style="enable-background:new 0 0 559.2 169;" xml:space="preserve">
<style type="text/css">
	.st0{display:none;}
	.st1{display:inline;}
	.st2{font-family:'HelveticaLTStd-Light';}
	.st3{font-size:70px;}
	.st4{fill:#79C365;}
	.st5{font-family:'HelveticaLTStd-Roman';}
	.st6{fill:#4C4C4D;}
	.st7{fill:#7AC365;}
	.st8{fill:#FFFFFF;}
	.st9{font-family:'HelveticaLTStd-Bold';}
	.st10{font-size:60.6296px;}
	.st11{display:inline;fill:#7AC365;}
	.st12{display:inline;fill:#4C4C4D;}
</style>
<g class="st0">
	<text transform="matrix(1 0 0 1 307.791 102.8818)" class="st1"><tspan x="0" y="0" class="st2 st3">Deliv</tspan><tspan x="155.5" y="0" class="st4 st5 st3">Meds</tspan></text>
	<g class="st1">
		<rect x="217.3" y="79.1" class="st6" width="29.1" height="42.7"/>
		
			<rect x="238.7" y="57.8" transform="matrix(4.604503e-07 -1 1 4.604503e-07 174.1032 332.4004)" class="st6" width="29.1" height="42.7"/>
		<rect x="217.3" y="36.5" class="st7" width="29.1" height="42.7"/>
		
			<rect x="196" y="57.8" transform="matrix(4.604503e-07 -1 1 4.604503e-07 131.4211 289.7182)" class="st7" width="29.1" height="42.7"/>
		<rect x="222.8" y="62" class="st7" width="21.8" height="32.9"/>
		<text transform="matrix(1 0 0 1 210.6032 100.3488)" class="st8 st9 st10">D</text>
	</g>
	<path class="st11" d="M209.9,77.4l0,3.4c0,7.1-5.8,12.9-12.9,12.9l-6.6,0c-7.1,0-12.9-5.8-12.9-12.9v-3.4c0-7.1,5.8-12.9,12.9-12.9
		l6.6,0C204.1,64.6,209.9,70.3,209.9,77.4z"/>
	<path class="st12" d="M285.9,77.4l0,3.4c0,7.1-5.8,12.9-12.9,12.9l-6.6,0c-7.1,0-12.9-5.8-12.9-12.9v-3.4c0-7.1,5.8-12.9,12.9-12.9
		l6.6,0C280.1,64.6,285.9,70.3,285.9,77.4z"/>
	<path class="st11" d="M230,23.3l3.4,0c7.1,0,12.9,5.8,12.9,12.9l0,6.6c0,7.1-5.8,12.9-12.9,12.9l-3.4,0c-7.1,0-12.9-5.8-12.9-12.9
		l0-6.6C217.1,29.1,222.9,23.3,230,23.3z"/>
	<path class="st12" d="M230.2,101.3l3.4,0c7.1,0,12.9,5.8,12.9,12.9l0,6.6c0,7.1-5.8,12.9-12.9,12.9l-3.4,0
		c-7.1,0-12.9-5.8-12.9-12.9l0-6.6C217.3,107.1,223.1,101.3,230.2,101.3z"/>
</g>
<g>
	<g>
		<path d="M152.8,112.8V50.5H174c6.9,0,13.4,0.4,19.2,4.7c8.2,6,10.4,18.1,10.4,26.4c0,8.2-1.8,17.4-7.5,23.6
			c-5.7,6.4-13.8,7.6-22,7.6H152.8z M158.7,107.7h14.1c5.3,0,9.9-0.3,14.6-2.9c8.3-4.2,10.4-14.9,10.4-23.3c0-9.1-2-19-10.7-23.7
			c-3.7-2-9.1-2.3-14.3-2.3h-14.1V107.7z"/>
		<path d="M217.6,91.6c-0.1,9.7,5.1,17.7,15,17.7c6.7,0,12-3.7,13.6-10.3h5.8c-2.6,8.5-8,15-19.4,15c-14.4,0-20.6-10.2-20.6-23.4
			c0-13.1,7.8-23.8,20.6-23.8c12.3,0,19.8,8.7,19.7,24.8H217.6z M246.9,87.3c0-8.7-4.8-15.8-14.2-15.8c-9.2,0-14,7.4-15,15.8H246.9z
			"/>
		<path d="M263.3,112.8V50.5h5.2v62.3H263.3z"/>
		<path d="M282.2,58.2v-7.7h5.7v7.7H282.2z M282.5,112.8V68h5.2v44.8H282.5z"/>
		<path d="M296.1,68h5.6l14.5,38.4L330.8,68h5.6l-17.4,44.8h-5.8L296.1,68z"/>
		<path class="st4" d="M395.6,112.8V76.1c0-1.8,0.2-9.7,0.2-15.5h-0.2l-17.5,52.1h-8.3l-17.5-52.1h-0.2c0,5.7,0.2,13.6,0.2,15.4
			v36.7h-8.1V50.7h12l17.7,52.5h0.2l17.6-52.5h11.9v62.1H395.6z"/>
		<path class="st4" d="M453.9,98.6c-0.3,2.2-2.3,8.6-8,12.4c-2.1,1.4-5,3.1-12.3,3.1c-12.7,0-20.2-9.6-20.2-22.7
			c0-14,6.7-25.2,21.7-25.2c13.1,0,19.5,10.4,19.5,26.4h-33c0,9.4,4.4,14.9,13.1,14.9c7.2,0,11.4-5.5,11.7-8.9H453.9z M446.7,86.6
			c-0.4-7-3.4-13.5-12.6-13.5c-7,0-12.5,6.5-12.5,13.5H446.7z"/>
		<path class="st4" d="M501.2,112.8H494v-6.2h-0.2c-3.3,6.1-8.5,7.5-12.9,7.5c-15.4,0-19.9-14.4-19.9-25.2
			c0-12.7,6.8-22.6,18.9-22.6c8.2,0,11.7,5.1,13.5,7.7l0.2-0.6V50.7h7.6V112.8z M481.1,107.5c4.8,0,12.4-3.2,12.4-15.2
			c0-7.4-1.2-19.2-12.2-19.2c-11.8,0-12.4,11.2-12.4,16.9C468.9,100,472.8,107.5,481.1,107.5z"/>
		<path class="st4" d="M537.4,80.4c-0.1-2.9-1.1-7.6-10.7-7.6c-2.3,0-9,0.8-9,6.4c0,3.7,2.3,4.6,8.2,6.1l7.6,1.9
			c9.4,2.3,12.7,5.8,12.7,11.9c0,9.3-7.7,15-17.9,15c-17.9,0-19.2-10.4-19.5-15.8h7.3c0.3,3.5,1.3,9.3,12,9.3
			c5.4,0,10.4-2.2,10.4-7.2c0-3.6-2.5-4.8-9-6.5l-8.8-2.2c-6.3-1.6-10.5-4.8-10.5-11c0-9.9,8.2-14.4,17.1-14.4
			c16.2,0,17.3,11.9,17.3,14.2H537.4z"/>
	</g>
	<g>
		<g>
			<path class="st6" d="M81.5,102.3c-3,3.3-7.2,5.5-13.2,5.5H50.4v9.4c0,0.1,0,0.2,0,0.3v7c0,0.1,0,0.2,0,0.3v0.8h0
				c0.6,7,6.5,12.6,13.7,12.6h3.6c7.2,0,13.1-5.6,13.7-12.6h0v-0.8c0-0.1,0-0.2,0-0.3v-7c0-0.1,0-0.2,0-0.3V102.3z"/>
			<path class="st6" d="M106.3,69.7L106.3,69.7l-1.1-0.1c-0.2,0-0.4,0-0.6,0l-7,0c-0.2,0-0.4,0-0.6,0H84.2c2.5,4.3,3.3,9.6,3.3,13.8
				c0,5.5-1.2,12.2-4.8,17.2h23.6v-0.1c6.8-0.9,12-6.6,12-13.6v-3.6C118.4,76.4,113.1,70.6,106.3,69.7z"/>
		</g>
		<g>
			<path class="st7" d="M33.8,69.6l-7,0c-0.2,0-0.4,0-0.6,0h-0.6v0c-7,0.6-12.5,6.5-12.5,13.7V87c0,7.1,5.5,13,12.5,13.7v0.1h22.6
				V69.7H34.4C34.2,69.6,34,69.6,33.8,69.6z"/>
			<path class="st7" d="M81.5,44.8v-0.3c0-7.6-6.1-13.7-13.7-13.7h-3.6c-7.6,0-13.7,6.2-13.7,13.7v7c0,0.9-0.1,1.3,0,2.6v7.2h18.2
				c5.9,0,10,1.9,12.9,4.7L81.5,44.8L81.5,44.8z"/>
			<path class="st7" d="M69.8,69.7c-1-0.2-2-0.3-2.9-0.3h-9.3v15.8v14.6h9.4c7.9,0,10.5-8,10.5-15.6C77.6,73.4,73.5,70.4,69.8,69.7z
				"/>
		</g>
		<path class="st8" d="M81.5,102.3c0.4-0.5,0.9-1,1.3-1.6h-1.3V102.3z"/>
	</g>
</g>
</svg>
